<svg xmlns="http://www.w3.org/2000/svg" version="1.1" xmlns:xlink="http://www.w3.org/1999/xlink" xmlns:svgjs="http://svgjs.dev/svgjs" width="1535" height="742" preserveAspectRatio="none" viewBox="0 0 1535 742"><g mask="url(&quot;#SvgjsMask1112&quot;)" fill="none"><rect width="1535" height="742" x="0" y="0" fill="url(&quot;#SvgjsRadialGradient1113&quot;)"></rect><path d="M1608.41 94.29C1439.42 95.51 1203.34 258.5 952.44 257.53 701.54 256.56 741.86-70.51 624.45-103.35" stroke="rgba(255, 255, 255, 0.58)" stroke-width="2"></path><path d="M1835.42 402.28C1673.01 406.48 1480.85 650.13 1230.49 639.72 980.12 629.31 1071.01 89.47 928.02-23.5" stroke="rgba(255, 255, 255, 0.58)" stroke-width="2"></path><path d="M1646.82 351.54C1499.77 354.59 1391.77 560.18 1093.66 551.88 795.55 543.58 743.6-31.41 540.5-94.68" stroke="rgba(255, 255, 255, 0.58)" stroke-width="2"></path><path d="M1654.01 176.82C1529.57 176.41 1409.48 84.07 1164.95 84.07 920.43 84.07 925.93 177.98 675.9 176.82 425.87 175.66 329.98-112.87 186.84-124.66" stroke="rgba(255, 255, 255, 0.58)" stroke-width="2"></path><path d="M1651.16 439.05C1500.45 429.05 1411.14 151.69 1124.91 142.25 838.68 132.81 735.83-11.59 598.66-13.2" stroke="rgba(255, 255, 255, 0.58)" stroke-width="2"></path></g><defs><mask id="SvgjsMask1112"><rect width="1535" height="742" fill="#ffffff"></rect></mask><radialGradient cx="0%" cy="0%" r="1704.93" gradientUnits="userSpaceOnUse" id="SvgjsRadialGradient1113"><stop stop-color="rgba(255, 255, 255, 1)" offset="0"></stop><stop stop-color="rgba(0, 95, 30, 1)" offset="1"></stop></radialGradient></defs></svg>