<?xml version="1.0" encoding="UTF-8"?>
<svg version="1.1" xmlns="http://www.w3.org/2000/svg" width="228" height="228">
<path d="M0 0 C-2.19722482 5.59293591 -7.0438197 8.071348 -12 11 C-32.25914627 23.32658228 -43.64524777 44.66975509 -50 67 C-53.01284697 82.59868536 -52.85026496 101.13344435 -47 116 C-46.74798828 116.65355469 -46.49597656 117.30710937 -46.23632812 117.98046875 C-38.7809601 137.03903544 -26.6108441 156.21076747 -7.15527344 164.81591797 C-4.20380083 165.98073111 -1.21898255 166.98247359 1.80859375 167.9296875 C5.05834584 169.01956764 7.93979349 170.46781497 11 172 C14.28320102 173.00070168 17.60620934 173.50526485 21 174 C22.00804688 174.14824219 23.01609375 174.29648438 24.0546875 174.44921875 C43.21698136 176.54579914 66.07673415 171.86060476 81.828125 160.41015625 C83.67138119 158.88295577 85.47532229 157.30495344 87.20703125 155.65234375 C89 154 89 154 91 154 C91 153.34 91 152.68 91 152 C92.50390625 150.5546875 92.50390625 150.5546875 94.5625 148.875 C102.35560214 142.19519816 107.44807652 135.19674336 112 126 C112.36996094 125.28199219 112.73992187 124.56398438 113.12109375 123.82421875 C123.26271803 102.87012345 124.03810813 76.12501743 116.78125 54.1640625 C111.91330183 40.55232225 103.21590968 25.14393979 91 17 C91 16.34 91 15.68 91 15 C90.44441406 14.7421875 89.88882813 14.484375 89.31640625 14.21875 C86.68955262 12.83666175 84.35521572 11.22120938 81.9375 9.5 C79.30876031 7.63418777 76.68248007 5.78832004 74 4 C74 3.01 74 2.02 74 1 C78.69757345 1.5119594 81.65757377 2.74209099 85.5625 5.375 C86.47128906 5.98085938 87.38007813 6.58671875 88.31640625 7.2109375 C89.64478516 8.09652344 89.64478516 8.09652344 91 9 C91.79664063 9.45375 92.59328125 9.9075 93.4140625 10.375 C106.6602399 18.69888187 117.09448875 30.66798967 125 44 C125.64388672 45.05767578 125.64388672 45.05767578 126.30078125 46.13671875 C133.09514984 57.75575299 137.81355104 69.71311789 140 83 C140.18304688 83.87785156 140.36609375 84.75570312 140.5546875 85.66015625 C144.28754449 113.6565837 138.190431 142.88448527 121.2890625 165.76953125 C119.01003557 168.74804595 116.65025401 171.65232277 114.23828125 174.52392578 C113.17380512 175.79281827 112.13151655 177.08026527 111.09375 178.37109375 C106.67985979 183.7114845 101.53329156 187.86046363 96 192 C95.21753906 192.598125 94.43507812 193.19625 93.62890625 193.8125 C78.92518066 204.62903377 62.98937076 209.74845679 45 212 C43.89785156 212.14695313 42.79570313 212.29390625 41.66015625 212.4453125 C16.3847944 215.02499113 -11.1265162 206.83204773 -31 191 C-31.7115625 190.43925781 -32.423125 189.87851563 -33.15625 189.30078125 C-34.82633135 187.93224237 -36.42265879 186.47447113 -38 185 C-38 184.34 -38 183.68 -38 183 C-38.99 182.67 -39.98 182.34 -41 182 C-41 181.34 -41 180.68 -41 180 C-41.99 179.67 -42.98 179.34 -44 179 C-62.75251664 158.66470214 -72.85460919 130.844454 -72.40405273 103.26513672 C-71.04209478 69.85547436 -56.93003595 40.9008749 -33.01953125 17.76953125 C-27.026341 12.51824463 -20.50490406 8.53715624 -13.32421875 5.1328125 C-11.17526306 4.08542233 -9.16447921 2.93119095 -7.125 1.6875 C-4 0 -4 0 0 0 Z " fill="#547F59" transform="translate(78,14)"/>
<path d="M0 0 C0.99 0.33 1.98 0.66 3 1 C3.474375 1.99 3.94875 2.98 4.4375 4 C4.953125 4.99 5.46875 5.98 6 7 C6.64582031 7.09925781 7.29164062 7.19851562 7.95703125 7.30078125 C8.63121094 7.53152344 9.30539063 7.76226562 10 8 C11.265625 10.73046875 11.265625 10.73046875 12.25 14.1875 C12.75273437 15.87939453 12.75273437 15.87939453 13.265625 17.60546875 C14.123641 21.57151077 14.86449146 25.27101708 13 29 C13.80824219 28.59007813 14.61648437 28.18015625 15.44921875 27.7578125 C17.05216797 26.94957031 17.05216797 26.94957031 18.6875 26.125 C20.27111328 25.32449219 20.27111328 25.32449219 21.88671875 24.5078125 C30.3824229 20.39320547 40.1069361 17.99858207 49.3125 21.125 C50.54759209 21.73820732 51.77576804 22.36538846 53 23 C54.44826172 23.67289063 54.44826172 23.67289063 55.92578125 24.359375 C65.6835175 28.98208765 72.52986483 34.89250237 76.859375 45.0078125 C79.07077042 52.38909182 77.98926821 59.45419751 74.6875 66.3125 C71.03039682 72.97030323 67.70761289 76.517201 61 80 C65.10899581 78.87204037 69.07561214 77.66489182 73 76 C73.66 76.66 74.32 77.32 75 78 C74.751251 82.06290039 73.90073474 85.35077902 72.44921875 89.13671875 C70.7595515 94.11606676 70.75094425 98.54473487 71 103.75 C71.46490714 113.65252217 71.46490714 113.65252217 68 118 C66.33333333 119.66666667 64.66666667 121.33333333 63 123 C62.443125 123.928125 61.88625 124.85625 61.3125 125.8125 C60.879375 126.534375 60.44625 127.25625 60 128 C59.34 128 58.68 128 58 128 C58 128.66 58 129.32 58 130 C55.7252187 131.38111722 54.49828639 132.05694702 51.8125 131.75 C50 131 50 131 49 129 C48.34 129 47.68 129 47 129 C46.690625 129.61875 46.38125 130.2375 46.0625 130.875 C45.375 132.25 44.6875 133.625 44 135 C43.34 135 42.68 135 42 135 C41.67 136.65 41.34 138.3 41 140 C38.76953125 140.75390625 38.76953125 140.75390625 36 141 C33.82421875 139.33984375 33.82421875 139.33984375 31.6875 136.9375 C28.36633245 133.38653173 25.10244251 130.42771349 21.171875 127.58984375 C14.07596255 122.39553374 7.32007141 117.04549997 2 110 C2 109.34 2 108.68 2 108 C0.865625 107.71125 -0.26875 107.4225 -1.4375 107.125 C-3.2009375 106.568125 -3.2009375 106.568125 -5 106 C-5.33 105.34 -5.66 104.68 -6 104 C-4.78515625 101.6171875 -4.78515625 101.6171875 -3.0625 98.875 C-2.49660156 97.96492188 -1.93070312 97.05484375 -1.34765625 96.1171875 C-0.90292969 95.41851562 -0.45820312 94.71984375 0 94 C-0.66 93.67 -1.32 93.34 -2 93 C-2.07347656 93.5259375 -2.14695312 94.051875 -2.22265625 94.59375 C-3.32250068 97.99829356 -5.34663971 100.64319651 -7.4375 103.5 C-7.88270996 104.11294922 -8.32791992 104.72589844 -8.78662109 105.35742188 C-26.12225717 128.97532185 -26.12225717 128.97532185 -41 133 C-49.25467733 134.26005978 -56.32885891 132.08409841 -63.23046875 127.52734375 C-68.3190036 123.48897556 -72.31527048 118.36571852 -74 112 C-73.328125 109.76953125 -73.328125 109.76953125 -72 108 C-70.88625 107.62875 -69.7725 107.2575 -68.625 106.875 C-65.85308331 105.86229557 -65.12312654 105.22020021 -63.65234375 102.58984375 C-62.66771374 100.08062534 -61.77929151 97.57989054 -61 95 C-59.515 95.495 -59.515 95.495 -58 96 C-57.19140625 98.328125 -57.19140625 98.328125 -56.5625 101.25 C-55.45461764 105.66430849 -54.57987089 108.94658071 -51 112 C-48.58825707 112.83425785 -48.58825707 112.83425785 -46 112 C-41.34814643 108.96205481 -39.59339357 106.34808217 -37.17114258 101.31835938 C-34.98410783 96.98896977 -32.39889078 92.88893524 -29.875 88.75 C-28.80855391 86.99560668 -27.74339912 85.24042761 -26.6796875 83.484375 C-26.21288574 82.71834961 -25.74608398 81.95232422 -25.26513672 81.16308594 C-24.08451706 79.14450427 -23.01862524 77.1041631 -22 75 C-22.53367188 74.68289062 -23.06734375 74.36578125 -23.6171875 74.0390625 C-31.14199033 69.32629671 -38.21981842 63.48416384 -42.9375 55.875 C-46.58929223 50.78462295 -52.39758976 46.80120512 -58 44 C-60.3329866 43.95977609 -62.66706666 43.95679753 -65 44 C-66.44207941 46.88415883 -66.09394887 49.41721528 -66.0625 52.625 C-66.05347656 53.81351563 -66.04445313 55.00203125 -66.03515625 56.2265625 C-66.02355469 57.14179687 -66.01195313 58.05703125 -66 59 C-67.155 58.979375 -68.31 58.95875 -69.5 58.9375 C-73.74350547 58.92992231 -77.80176644 59.40025235 -82 60 C-83.12845355 56.61463935 -82.89409623 56.06590376 -81.6875 52.875 C-80.55100833 49.73950066 -79.74091795 46.78591911 -79.1875 43.5 C-77.87620625 37.1768971 -74.36869486 31.57912991 -69 28 C-59.50062241 25.56426216 -49.54372765 26.07258877 -41 31 C-38.11780221 33.13758782 -35.54658735 35.47635488 -33 38 C-31.7315625 39.2065625 -31.7315625 39.2065625 -30.4375 40.4375 C-26.6656654 44.40276201 -22.93884082 48.45869452 -19.6171875 52.8125 C-16.90895275 56.35534797 -15.36127698 57.36971578 -11 58 C-10.35933594 57.154375 -9.71867187 56.30875 -9.05859375 55.4375 C-4.23686992 49.10349976 0.62981023 42.88587025 6 37 C5.07043196 37 4.14154096 37.06762478 3.21484375 37.140625 C-2.75661707 37.427419 -7.08549149 36.49885383 -12 33 C-14.23477247 30.62978677 -14.9318304 29.1676792 -15.12109375 25.92578125 C-14.85062511 20.78687708 -13.48100246 17.60050303 -10.265625 13.63671875 C-8.76769469 11.81681788 -8.76769469 11.81681788 -7.375 8.625 C-6 6 -6 6 -3 5 C-1.30117552 2.50240018 -1.30117552 2.50240018 0 0 Z M12 71 C8.80003301 76.22917892 5.72273295 81.50580998 3 87 C19.49323946 84.13547257 19.49323946 84.13547257 35 78 C35.74378906 77.62101562 36.48757812 77.24203125 37.25390625 76.8515625 C47.05548234 71.3091153 53.39064261 61.5354281 56.6484375 50.87890625 C57.86193537 44.39343431 57.03903222 39.72740688 54 34 C37.2346266 25.6173133 19.02632544 59.73317134 12 71 Z M58 81 C57.34 81.66 56.68 82.32 56 83 C57.32 82.67 58.64 82.34 60 82 C59.34 81.67 58.68 81.34 58 81 Z M1 90 C2 92 2 92 2 92 Z M14 93 C13.67 93.66 13.34 94.32 13 95 C13.88807687 96.40078104 14.78591259 97.79537637 15.6875 99.1875 C16.18636719 99.96480469 16.68523437 100.74210937 17.19921875 101.54296875 C24.36327638 111.31778924 35.3756506 117.2846597 47 120 C47.99 120.33 48.98 120.66 50 121 C50.18175781 119.74896484 50.18175781 119.74896484 50.3671875 118.47265625 C51.34461632 111.90884576 52.46783577 105.45697784 54 99 C48.8204829 102.31207216 43.9898099 105.67626603 39.5078125 109.8984375 C38 111 38 111 35 111 C34.87882812 110.21496094 34.75765625 109.42992187 34.6328125 108.62109375 C33.72737415 102.94469178 32.70740904 97.48810048 31 92 C31 91.67 31 91.34 31 91 C25.16905105 90.78796549 19.55586224 91.03052586 14 93 Z " fill="#5B825E" transform="translate(115,33)"/>
<path d="M0 0 C3 1 3 1 4.1875 3.375 C5 6 5 6 5 9 C7.97 9.33 10.94 9.66 14 10 C15 14 15 14 13.6875 16.25 C13.130625 16.8275 12.57375 17.405 12 18 C11.34 18 10.68 18 10 18 C10.33 21.96 10.66 25.92 11 30 C7 31 7 31 5.078125 30.22265625 C2.5390625 28.61132812 2.5390625 28.61132812 0 27 C-0.53625 27.474375 -1.0725 27.94875 -1.625 28.4375 C-4.42842836 30.28186076 -6.69620258 30.62456847 -10 31 C-11.12758089 27.61725734 -10.81750262 26.23221777 -10.0625 22.8125 C-9.86785156 21.91144531 -9.67320313 21.01039062 -9.47265625 20.08203125 C-9.31667969 19.39496094 -9.16070312 18.70789063 -9 18 C-10.98 16.35 -12.96 14.7 -15 13 C-13 10 -13 10 -10.8359375 9.48828125 C-10.02382812 9.43027344 -9.21171875 9.37226563 -8.375 9.3125 C-7.55773437 9.24675781 -6.74046875 9.18101563 -5.8984375 9.11328125 C-5.27195312 9.07589844 -4.64546875 9.03851563 -4 9 C-3.71125 7.88625 -3.4225 6.7725 -3.125 5.625 C-2 2 -2 2 0 0 Z " fill="#648163" transform="translate(115,0)"/>
<path d="M0 0 C4.69757345 0.5119594 7.65757377 1.74209099 11.5625 4.375 C12.47128906 4.98085938 13.38007813 5.58671875 14.31640625 6.2109375 C15.20199219 6.80132813 16.08757812 7.39171875 17 8 C18.19496094 8.680625 18.19496094 8.680625 19.4140625 9.375 C30.79769788 16.52846272 43.22180734 27.72134061 49 40 C49 40.99 49 41.98 49 43 C48.01 43 47.02 43 46 43 C45.505 43.99 45.505 43.99 45 45 C43 46 43 46 41.046875 45.8671875 C38.11537796 44.62521738 37.61676958 42.96305683 36.25 40.125 C31.65772418 31.24044629 26.37502412 23.55843243 18.46875 17.33984375 C17.9840625 16.89769531 17.499375 16.45554687 17 16 C17 15.34 17 14.68 17 14 C16.44441406 13.7421875 15.88882813 13.484375 15.31640625 13.21875 C12.68955262 11.83666175 10.35521572 10.22120938 7.9375 8.5 C5.30876031 6.63418777 2.68248007 4.78832004 0 3 C0 2.01 0 1.02 0 0 Z " fill="#6E8370" transform="translate(152,15)"/>
<path d="M0 0 C-2.19722482 5.59293591 -7.0438197 8.071348 -12 11 C-22.67186195 17.49324422 -29.4916932 25.22475143 -36.23193359 35.62841797 C-36.67746582 36.30662598 -37.12299805 36.98483398 -37.58203125 37.68359375 C-37.97624268 38.29775146 -38.3704541 38.91190918 -38.77661133 39.54467773 C-40 41 -40 41 -43 42 C-43.66 42.66 -44.32 43.32 -45 44 C-46.32 43.34 -47.64 42.68 -49 42 C-49.33565369 38.36108773 -49.29397977 36.47606652 -47.34765625 33.32421875 C-37.19925474 21.6145247 -27.46949577 11.83905059 -13.32421875 5.1328125 C-11.17526306 4.08542233 -9.16447921 2.93119095 -7.125 1.6875 C-4 0 -4 0 0 0 Z " fill="#7A8677" transform="translate(78,14)"/>
<path d="M0 0 C3.13359333 1.1750975 6.20649724 2.48462284 9.25 3.875 C9.93578125 4.18179688 10.6215625 4.48859375 11.328125 4.8046875 C13 6 13 6 13.734375 8.1328125 C13.82203125 8.74898437 13.9096875 9.36515625 14 10 C14.66 10 15.32 10 16 10 C16.75 11.6875 16.75 11.6875 17 14 C15.1875 16.75 15.1875 16.75 13 19 C12.34 19 11.68 19 11 19 C11.20496094 19.71542969 11.40992188 20.43085937 11.62109375 21.16796875 C12.07342976 24.54883068 11.4247487 26.21648023 10.0625 29.3125 C9.68222656 30.19550781 9.30195313 31.07851562 8.91015625 31.98828125 C8.45962891 32.98408203 8.45962891 32.98408203 8 34 C6.68 33.67 5.36 33.34 4 33 C4.33 32.175 4.66 31.35 5 30.5 C6.91398728 23.80104452 6.14888021 18.44664062 4 12 C2.58376784 11.94552953 1.16691809 11.90699492 -0.25 11.875 C-1.43335938 11.84019531 -1.43335938 11.84019531 -2.640625 11.8046875 C-5.20731941 12.0171622 -6.7916067 12.71345895 -9 14 C-9.33 13.01 -9.66 12.02 -10 11 C-8.88625 10.54625 -7.7725 10.0925 -6.625 9.625 C-3.03800992 8.27534014 -3.03800992 8.27534014 -1 6 C-0.01 6 0.98 6 2 6 C1.34 5.34 0.68 4.68 0 4 C0 2.68 0 1.36 0 0 Z " fill="#678264" transform="translate(165,55)"/>
<path d="M0 0 C0.99 0 1.98 0 3 0 C1.56643667 4.07042851 -0.40678002 7.26260188 -2.9375 10.75 C-3.97197266 12.19632813 -3.97197266 12.19632813 -5.02734375 13.671875 C-7 16 -7 16 -10 17 C-10.66 17.66 -11.32 18.32 -12 19 C-13.32 18.34 -14.64 17.68 -16 17 C-16.46557346 13.81858133 -16.50963377 11.74656877 -14.6640625 9.04296875 C-13.15741976 7.3064392 -11.62063536 5.630282 -10 4 C-9.34 4.33 -8.68 4.66 -8 5 C-7.67 4.67 -7.34 4.34 -7 4 C-6.34 4 -5.68 4 -5 4 C-4.67 4.66 -4.34 5.32 -4 6 C-3.401875 5.01 -2.80375 4.02 -2.1875 3 C-1.1046875 1.515 -1.1046875 1.515 0 0 Z " fill="#688267" transform="translate(45,39)"/>
<path d="M0 0 C4.03520597 1.58962659 8.01811282 3.28232318 12 5 C10.6062718 9.43458973 8.39417765 11.87378374 5 15 C4.67 14.01 4.34 13.02 4 12 C2.58376784 11.94552953 1.16691809 11.90699492 -0.25 11.875 C-1.43335938 11.84019531 -1.43335938 11.84019531 -2.640625 11.8046875 C-5.20731941 12.0171622 -6.7916067 12.71345895 -9 14 C-9.33 13.01 -9.66 12.02 -10 11 C-8.88625 10.54625 -7.7725 10.0925 -6.625 9.625 C-3.03800992 8.27534014 -3.03800992 8.27534014 -1 6 C-0.01 6 0.98 6 2 6 C1.34 5.34 0.68 4.68 0 4 C0 2.68 0 1.36 0 0 Z " fill="#768C76" transform="translate(165,55)"/>
<path d="M0 0 C0.33 0.66 0.66 1.32 1 2 C3.52733235 2.65555119 3.52733235 2.65555119 6 3 C7.89059585 8.06409602 9.53597673 12.50623854 9 18 C8.67 18.66 8.34 19.32 8 20 C7.34 20 6.68 20 6 20 C6.33 20.99 6.66 21.98 7 23 C6.34 23 5.68 23 5 23 C4.67 20.36 4.34 17.72 4 15 C3.01 14.67 2.02 14.34 1 14 C1 13.01 1 12.02 1 11 C0.34 11 -0.32 11 -1 11 C-2.26264601 6.70700357 -1.62950412 4.12168689 0 0 Z " fill="#6B8D6A" transform="translate(120,42)"/>
<path d="M0 0 C4.77372777 0.50769335 7.73440053 1.80946647 11.6875 4.5 C14.52265784 6.4136335 16.74978474 7.91659491 20 9 C19.690625 10.175625 19.690625 10.175625 19.375 11.375 C19.25125 12.24125 19.1275 13.1075 19 14 C19.66 14.66 20.32 15.32 21 16 C20.34 16.33 19.68 16.66 19 17 C18.34 16.67 17.68 16.34 17 16 C17 15.34 17 14.68 17 14 C16.44441406 13.7421875 15.88882813 13.484375 15.31640625 13.21875 C12.68955262 11.83666175 10.35521572 10.22120938 7.9375 8.5 C5.30876031 6.63418777 2.68248007 4.78832004 0 3 C0 2.01 0 1.02 0 0 Z " fill="#5D655C" transform="translate(152,15)"/>
<path d="M0 0 C-2.19685135 5.59198524 -7.03641392 8.07275693 -12 11 C-12.70125 11.556875 -13.4025 12.11375 -14.125 12.6875 C-16 14 -16 14 -19 14 C-19 13.01 -19 12.02 -19 11 C-19.66 11 -20.32 11 -21 11 C-21 11.66 -21 12.32 -21 13 C-21.66 13 -22.32 13 -23 13 C-23 12.01 -23 11.02 -23 10 C-22.21496094 9.61328125 -21.42992187 9.2265625 -20.62109375 8.828125 C-13.70458643 5.42195989 -13.70458643 5.42195989 -7 1.625 C-4 0 -4 0 0 0 Z " fill="#434741" transform="translate(78,14)"/>
<path d="M0 0 C-6.34033472 7.08507245 -18.05577267 8.64138319 -27 10 C-29.33287144 10.0464253 -31.66741976 10.05927777 -34 10 C-34.33 9.34 -34.66 8.68 -35 8 C-30.28217755 6.23081658 -25.99400307 5.41616692 -21 5 C-20.34 5.33 -19.68 5.66 -19 6 C-18.67 4.68 -18.34 3.36 -18 2 C-18 2.66 -18 3.32 -18 4 C-16.53984709 3.71758359 -15.08190207 3.42373386 -13.625 3.125 C-12.81289062 2.96257812 -12.00078125 2.80015625 -11.1640625 2.6328125 C-8.81326077 2.13341068 -8.81326077 2.13341068 -7 0 C-3.99340864 -1.066855 -3.14820941 -1.04940314 0 0 Z " fill="#527354" transform="translate(157,215)"/>
<path d="M0 0 C1.9375 0.75 1.9375 0.75 4 2 C4.75 4.125 4.75 4.125 5 6 C2.525 5.505 2.525 5.505 0 5 C0.01160156 5.62648438 0.02320312 6.25296875 0.03515625 6.8984375 C0.04417969 7.71570313 0.05320312 8.53296875 0.0625 9.375 C0.07410156 10.18710938 0.08570312 10.99921875 0.09765625 11.8359375 C0 14 0 14 -1 16 C-1.66 16 -2.32 16 -3 16 C-3 17.65 -3 19.3 -3 21 C-7.04095592 18.7938565 -10.07146744 16.19773868 -13.3125 12.9375 C-14.19550781 12.05964844 -15.07851562 11.18179688 -15.98828125 10.27734375 C-18 8 -18 8 -18 6 C-17.01 6 -16.02 6 -15 6 C-13.96986723 7.64821244 -12.96885372 9.31503702 -12 11 C-11.34 11 -10.68 11 -10 11 C-8.98133771 12.65532623 -7.98189187 14.32260138 -7 16 C-6.34 16.33 -5.68 16.66 -5 17 C-5.0825 16.154375 -5.165 15.30875 -5.25 14.4375 C-4.9231323 9.94306912 -3.34199773 7.83235992 -1 4 C-0.23959428 1.73014106 -0.23959428 1.73014106 0 0 Z " fill="#547E54" transform="translate(92,84)"/>
<path d="M0 0 C0.66 1.32 1.32 2.64 2 4 C0.71086513 4.67154933 -0.58140204 5.33708859 -1.875 6 C-2.59429687 6.37125 -3.31359375 6.7425 -4.0546875 7.125 C-6 8 -6 8 -8 8 C-8 8.66 -8 9.32 -8 10 C-9.3921875 9.690625 -9.3921875 9.690625 -10.8125 9.375 C-14.15173402 8.63307034 -14.15173402 8.63307034 -17 11 C-20.1875 11.125 -20.1875 11.125 -23 11 C-21 8 -21 8 -18 6 C-14.8125 5.875 -14.8125 5.875 -12 6 C-12 5.34 -12 4.68 -12 4 C-8.04 2.68 -4.08 1.36 0 0 Z " fill="#5D7762" transform="translate(141,183)"/>
<path d="M0 0 C2.87529818 1.28892677 5.05008298 2.49296383 7 5 C7.6875 7.6875 7.6875 7.6875 8 10 C8.99 10.33 9.98 10.66 11 11 C11 12.98 11 14.96 11 17 C9.68 17.33 8.36 17.66 7 18 C4.03 12.72 1.06 7.44 -2 2 C-1.34 1.34 -0.68 0.68 0 0 Z " fill="#647E64" transform="translate(17,162)"/>
<path d="M0 0 C1.13583456 3.71727674 0.66670026 5.47051709 -1 9 C-1.66 9 -2.32 9 -3 9 C-4.46317609 13.57357557 -5.8638922 17.97919148 -6.5 22.75 C-7.08087775 26.5257054 -8.2256009 30.2256009 -11 33 C-11.23075082 34.34747084 -11.41153063 35.70377565 -11.5625 37.0625 C-11.706875 38.361875 -11.85125 39.66125 -12 41 C-12.66 40.67 -13.32 40.34 -14 40 C-11.77151884 25.36826184 -6.8669719 12.98391047 0 0 Z " fill="#596755" transform="translate(22,60)"/>
<path d="M0 0 C1.29315061 0.95632999 2.58446853 1.91513851 3.875 2.875 C4.59429687 3.40867187 5.31359375 3.94234375 6.0546875 4.4921875 C8 6 8 6 10 8 C10 9.32 10 10.64 10 12 C6.29706315 12.33663062 4.60465619 12.47736015 1.625 10.125 C0 8 0 8 0 6 C-0.66 5.34 -1.32 4.68 -2 4 C-1.34 2.68 -0.68 1.36 0 0 Z " fill="#7F867F" transform="translate(172,25)"/>
<path d="M0 0 C1.4540625 0.0309375 1.4540625 0.0309375 2.9375 0.0625 C1.97678241 3.29400461 1.24338515 4.82101173 -1.4375 6.9375 C-4.46491523 8.23496367 -5.02874374 7.88988807 -8.0625 7.0625 C-10.08177511 7.66828253 -12.08503397 8.33169734 -14.0625 9.0625 C-14.7225 9.0625 -15.3825 9.0625 -16.0625 9.0625 C-16.0625 10.7125 -16.0625 12.3625 -16.0625 14.0625 C-16.7225 13.0725 -17.3825 12.0825 -18.0625 11.0625 C-17.7325 10.0725 -17.4025 9.0825 -17.0625 8.0625 C-17.7225 7.4025 -18.3825 6.7425 -19.0625 6.0625 C-15.5975 5.5675 -15.5975 5.5675 -12.0625 5.0625 C-12.0625 5.7225 -12.0625 6.3825 -12.0625 7.0625 C-11.4025 7.0625 -10.7425 7.0625 -10.0625 7.0625 C-10.0625 6.4025 -10.0625 5.7425 -10.0625 5.0625 C-7.0925 5.5575 -7.0925 5.5575 -4.0625 6.0625 C-4.083125 5.258125 -4.10375 4.45375 -4.125 3.625 C-4.03366838 -0.11959638 -3.80090148 0.07756942 0 0 Z " fill="#4F6550" transform="translate(163.0625,115.9375)"/>
<path d="M0 0 C1.65 0.33 3.3 0.66 5 1 C3.87952194 4.36143418 2.50292817 5.57528834 0 8 C-0.33 8.66 -0.66 9.32 -1 10 C-3.64860427 10.59355614 -6.29197322 10.74209269 -9 11 C-8.82701599 8.66471585 -8.29774631 7.30822418 -6.66796875 5.62109375 C-2.42788462 2 -2.42788462 2 0 2 C0 1.34 0 0.68 0 0 Z " fill="#5D705D" transform="translate(169,166)"/>
<path d="M0 0 C0.66 0.33 1.32 0.66 2 1 C1.34 2.65 0.68 4.3 0 6 C2.97 5.34 5.94 4.68 9 4 C9 4.66 9 5.32 9 6 C8.34 6 7.68 6 7 6 C6.79375 6.598125 6.5875 7.19625 6.375 7.8125 C4.49073918 10.81018767 2.18867916 11.61361776 -1 13 C-2 8.25 -2 8.25 -2 6 C-2.66 6 -3.32 6 -4 6 C-3.67 5.01 -3.34 4.02 -3 3 C-2.34 3.33 -1.68 3.66 -1 4 C-0.67 2.68 -0.34 1.36 0 0 Z " fill="#436843" transform="translate(119,113)"/>
<path d="M0 0 C0.66 0 1.32 0 2 0 C2 0.66 2 1.32 2 2 C2.99 1.67 3.98 1.34 5 1 C4.67 1.99 4.34 2.98 4 4 C3.34 4 2.68 4 2 4 C1.938125 4.7425 1.87625 5.485 1.8125 6.25 C0.72450132 9.93245708 -0.80268735 10.93950962 -4 13 C-7.3125 14.25 -7.3125 14.25 -10 15 C-10.33 14.01 -10.66 13.02 -11 12 C-9.02 12 -7.04 12 -5 12 C-5.20625 11.38125 -5.4125 10.7625 -5.625 10.125 C-5.74875 9.42375 -5.8725 8.7225 -6 8 C-4.04783565 6.04783565 -2.46800047 5.15173355 0 4 C0 2.68 0 1.36 0 0 Z " fill="#5F8164" transform="translate(88,149)"/>
<path d="M0 0 C0.66 0 1.32 0 2 0 C2.33 8.58 2.66 17.16 3 26 C2.01 26 1.02 26 0 26 C-1.54659574 17.30039898 -1.31567432 8.71634238 0 0 Z " fill="#526B53" transform="translate(24,90)"/>
<path d="M0 0 C1.98 0.99 3.96 1.98 6 3 C5.814375 3.680625 5.62875 4.36125 5.4375 5.0625 C4.91476057 8.57232191 5.38621423 11.52188063 6 15 C3.5067466 14.00269864 2.22532561 13.34925469 0.75 11.0625 C0 9 0 9 0 6 C-0.66 5.67 -1.32 5.34 -2 5 C-1.34 3.35 -0.68 1.7 0 0 Z " fill="#628B69" transform="translate(102,50)"/>
<path d="M0 0 C2.125 0.9375 2.125 0.9375 4 2 C3 4 3 4 1 4.9375 C-1.34608221 5.8891846 -1.34608221 5.8891846 -2 9 C-2.66 9 -3.32 9 -4 9 C-4 8.34 -4 7.68 -4 7 C-4.78375 7.495 -5.5675 7.99 -6.375 8.5 C-9 10 -9 10 -11 10 C-11 8.35 -11 6.7 -11 5 C-10.37351563 4.72285156 -9.74703125 4.44570312 -9.1015625 4.16015625 C-8.28429687 3.79792969 -7.46703125 3.43570313 -6.625 3.0625 C-5.81289062 2.70285156 -5.00078125 2.34320313 -4.1640625 1.97265625 C-2.76316215 1.3430097 -1.37374716 0.68687358 0 0 Z " fill="#576E5D" transform="translate(186,109)"/>
<path d="M0 0 C1.47339844 0.13535156 1.47339844 0.13535156 2.9765625 0.2734375 C5.375 0.625 5.375 0.625 6.375 1.625 C8.22391946 1.85863881 10.07988031 2.03803635 11.9375 2.1875 C12.94941406 2.27128906 13.96132812 2.35507813 15.00390625 2.44140625 C16.17759766 2.53228516 16.17759766 2.53228516 17.375 2.625 C17.375 2.955 17.375 3.285 17.375 3.625 C7.94040447 4.57877059 -0.295132 4.72726076 -9.625 2.625 C-7.63030673 -1.36438655 -3.85324614 -0.37617443 0 0 Z " fill="#3A5037" transform="translate(105.625,222.375)"/>
<path d="M0 0 C0.99 0.33 1.98 0.66 3 1 C-10.03763331 15.62828138 -10.03763331 15.62828138 -17 20 C-16.67 18.35 -16.34 16.7 -16 15 C-14.35 14.67 -12.7 14.34 -11 14 C-11 13.34 -11 12.68 -11 12 C-10.34 11.67 -9.68 11.34 -9 11 C-8.731875 10.360625 -8.46375 9.72125 -8.1875 9.0625 C-7 7 -7 7 -4.5 6.0625 C-1.75229902 5.21361664 -1.75229902 5.21361664 -0.6875 2.375 C-0.460625 1.59125 -0.23375 0.8075 0 0 Z " fill="#4E614E" transform="translate(192,184)"/>
<path d="M0 0 C0.99 0.33 1.98 0.66 3 1 C4.1875 4.5625 4.1875 4.5625 5 8 C0.375 11 0.375 11 -3 11 C-2.88590407 9.54077307 -2.75834456 8.08259402 -2.625 6.625 C-2.55539063 5.81289062 -2.48578125 5.00078125 -2.4140625 4.1640625 C-2 2 -2 2 0 0 Z " fill="#7A8D77" transform="translate(115,0)"/>
<path d="M0 0 C0.99 0.33 1.98 0.66 3 1 C2.71943562 3.64745321 2.42614369 6.29237964 2.125 8.9375 C2.04636719 9.69224609 1.96773437 10.44699219 1.88671875 11.22460938 C1.66116192 13.15919299 1.33741026 15.08176019 1 17 C0.34 17.33 -0.32 17.66 -1 18 C-3.22189008 12.77202334 -3.05488103 9.45021863 -2 4 C-0.9375 1.5 -0.9375 1.5 0 0 Z " fill="#697E64" transform="translate(168,137)"/>
<path d="M0 0 C2.97 0.495 2.97 0.495 6 1 C6 1.99 6 2.98 6 4 C3 5 3 5 0 5 C-0.33 6.32 -0.66 7.64 -1 9 C-0.34 9.33 0.32 9.66 1 10 C-4.75 10.125 -4.75 10.125 -7 9 C-5.87994369 5.63983107 -4.62788203 4.30935087 -2 2 C-1.34 2 -0.68 2 0 2 C0 1.34 0 0.68 0 0 Z " fill="#6B8D6F" transform="translate(128,117)"/>
<path d="M0 0 C0.99 0.33 1.98 0.66 3 1 C3.474375 1.99 3.94875 2.98 4.4375 4 C5.65795597 7.13889061 5.65795597 7.13889061 8.1875 7.875 C8.785625 7.91625 9.38375 7.9575 10 8 C9.67 9.32 9.34 10.64 9 12 C8.4225 11.814375 7.845 11.62875 7.25 11.4375 C4.79307475 10.95976454 3.35602466 11.24270636 1 12 C1.33 9.36 1.66 6.72 2 4 C1.34 4 0.68 4 0 4 C0 4.66 0 5.32 0 6 C-0.66 6 -1.32 6 -2 6 C-1.125 1.125 -1.125 1.125 0 0 Z " fill="#5E725F" transform="translate(115,33)"/>
<path d="M0 0 C3.4375 0.8125 3.4375 0.8125 7 2 C7.33 2.99 7.66 3.98 8 5 C9.98 4.67 11.96 4.34 14 4 C14 4.66 14 5.32 14 6 C16.475 6.495 16.475 6.495 19 7 C19.33 7.99 19.66 8.98 20 10 C19.01 10.495 19.01 10.495 18 11 C16.02880859 10.28735352 16.02880859 10.28735352 13.6484375 9.12890625 C12.79765625 8.71962891 11.946875 8.31035156 11.0703125 7.88867188 C10.18085937 7.45103516 9.29140625 7.01339844 8.375 6.5625 C7.4778125 6.12873047 6.580625 5.69496094 5.65625 5.24804688 C3.43397755 4.17237245 1.21554281 3.08945069 -1 2 C-0.67 1.34 -0.34 0.68 0 0 Z " fill="#4C6047" transform="translate(58,210)"/>
<path d="M0 0 C3.2542015 2.83430453 4.5206753 4.68607774 5 9 C4.01 9 3.02 9 2 9 C1.67 9.66 1.34 10.32 1 11 C0.01 11 -0.98 11 -2 11 C-1.79375 10.2575 -1.5875 9.515 -1.375 8.75 C-0.95591249 5.67669159 -1.38050989 4.57213134 -3 2 C-2.01 1.34 -1.02 0.68 0 0 Z " fill="#71866D" transform="translate(196,49)"/>
<path d="M0 0 C1.65 0 3.3 0 5 0 C4.64010575 2.72575644 4.24183438 3.78718575 2.14453125 5.6328125 C-2.13636259 8.37201091 -6.01783577 10.72252199 -11 12 C-11 11.01 -11 10.02 -11 9 C-10.37351563 8.68546875 -9.74703125 8.3709375 -9.1015625 8.046875 C-8.28429687 7.61890625 -7.46703125 7.1909375 -6.625 6.75 C-5.81289062 6.33234375 -5.00078125 5.9146875 -4.1640625 5.484375 C-1.79198795 3.85732025 -1.02905196 2.64613361 0 0 Z " fill="#435D3F" transform="translate(169,203)"/>
<path d="M0 0 C0 3 0 3 -2 6 C-2.66 6 -3.32 6 -4 6 C-4 6.99 -4 7.98 -4 9 C-4.99 9.33 -5.98 9.66 -7 10 C-7 10.66 -7 11.32 -7 12 C-7.99 11.67 -8.98 11.34 -10 11 C-9.8125 8.1875 -9.8125 8.1875 -9 5 C-6.6875 3.25 -6.6875 3.25 -4 2 C-3.236875 1.608125 -2.47375 1.21625 -1.6875 0.8125 C-1.130625 0.544375 -0.57375 0.27625 0 0 Z " fill="#69806D" transform="translate(175,153)"/>
<path d="M0 0 C0.33 0 0.66 0 1 0 C1 9 1 9 -1 12 C-1.33 13.03125 -1.66 14.0625 -2 15.125 C-3 18 -3 18 -5 19 C-4.55018927 16.39409649 -4.09055778 13.79059469 -3.625 11.1875 C-3.49867187 10.44951172 -3.37234375 9.71152344 -3.2421875 8.95117188 C-2.59836518 5.39405354 -2.03003944 3.04505916 0 0 Z " fill="#536E4F" transform="translate(39,69)"/>
<path d="M0 0 C2.00413395 3.00620093 2.91498029 4.42917202 3 8 C0.5625 10.8125 0.5625 10.8125 -2 13 C-3.04478472 9.60444966 -3.30152754 6.54294857 -3 3 C-1.5 1.125 -1.5 1.125 0 0 Z " fill="#5F8861" transform="translate(110,121)"/>
<path d="M0 0 C0.66 0 1.32 0 2 0 C2 0.99 2 1.98 2 3 C2.99 3 3.98 3 5 3 C3.25 7.875 3.25 7.875 1 9 C1 8.34 1 7.68 1 7 C-0.65 8.32 -2.3 9.64 -4 11 C-4.66 10.67 -5.32 10.34 -6 10 C-4.07119658 6.59244728 -2.1723491 3.25852365 0 0 Z " fill="#5B6B5A" transform="translate(109,39)"/>
<path d="M0 0 C2.61943903 2.61943903 3.44197838 5.57473973 4.625 9 C4.85445312 9.64195312 5.08390625 10.28390625 5.3203125 10.9453125 C7 15.72442336 7 15.72442336 7 18 C6.34 18 5.68 18 5 18 C4.67 16.35 4.34 14.7 4 13 C3.01 13.33 2.02 13.66 1 14 C0.04738513 9.23692563 -0.08333357 4.8333472 0 0 Z " fill="#49644D" transform="translate(27,122)"/>
<path d="M0 0 C1.258125 -0.04125 2.51625 -0.0825 3.8125 -0.125 C4.52019531 -0.14820312 5.22789063 -0.17140625 5.95703125 -0.1953125 C8 0 8 0 11 2 C13.62531524 2.16713569 13.62531524 2.16713569 16 2 C15.67 3.32 15.34 4.64 15 6 C10.64484728 6.3732988 8.64291668 5.27682292 5 3 C2.30745009 2.29329272 2.30745009 2.29329272 0 2 C0 1.34 0 0.68 0 0 Z " fill="#557357" transform="translate(52,74)"/>
<path d="M0 0 C0.99 0.33 1.98 0.66 3 1 C2.38722388 3.96175123 1.74627478 5.38058783 0 8 C-0.66 8 -1.32 8 -2 8 C-2 10.31 -2 12.62 -2 15 C-2.99 15.495 -2.99 15.495 -4 16 C-5.39362292 10.4255083 -4.77653111 7.61623466 -2.0078125 2.6015625 C-1 1 -1 1 0 0 Z " fill="#5F6C5C" transform="translate(127,10)"/>
<path d="M0 0 C1.32 0.33 2.64 0.66 4 1 C4 1.66 4 2.32 4 3 C4.7425 3.144375 5.485 3.28875 6.25 3.4375 C8.52027739 3.90187492 10.75759479 4.41863569 13 5 C13 6.65 13 8.3 13 10 C9.34603593 9.38821244 7.13957441 7.8335544 4.25 5.5625 C3.45078125 4.94503906 2.6515625 4.32757813 1.828125 3.69140625 C1.22484375 3.13324219 0.6215625 2.57507813 0 2 C0 1.34 0 0.68 0 0 Z " fill="#516C55" transform="translate(134,157)"/>
<path d="M0 0 C3.07563891 1.53781946 3.70322574 3.91244223 5 7 C4.67 7.99 4.34 8.98 4 10 C0.12867972 9.42647107 -2.08172796 7.51295648 -5 5 C-3.68 5 -2.36 5 -1 5 C-0.67 3.35 -0.34 1.7 0 0 Z " fill="#6F7D6C" transform="translate(121,21)"/>
<path d="M0 0 C0.99 0.33 1.98 0.66 3 1 C3.18284008 5.02248173 2.98043185 7.50512026 1 11 C0.63215869 12.3242287 0.28797019 13.65613912 0 15 C-0.33 14.01 -0.66 13.02 -1 12 C-1.99 11.67 -2.98 11.34 -4 11 C-4 10.34 -4 9.68 -4 9 C-3.34 9 -2.68 9 -2 9 C-2 8.34 -2 7.68 -2 7 C-1.01 7 -0.02 7 1 7 C0.67 6.01 0.34 5.02 0 4 C-0.66 3.67 -1.32 3.34 -2 3 C-2 2.34 -2 1.68 -2 1 C-1.34 0.67 -0.68 0.34 0 0 Z " fill="#495F4A" transform="translate(38,182)"/>
<path d="M0 0 C0 1.32 0 2.64 0 4 C-3.96 4.66 -7.92 5.32 -12 6 C-9.09533673 -1.26165818 -7.0705734 -0.11404151 0 0 Z " fill="#738772" transform="translate(153,54)"/>
<path d="M0 0 C0.66 0 1.32 0 2 0 C1.34 2.64 0.68 5.28 0 8 C-0.99 8 -1.98 8 -3 8 C-3.2475 8.969375 -3.495 9.93875 -3.75 10.9375 C-4.1625 11.948125 -4.575 12.95875 -5 14 C-7.078125 14.69140625 -7.078125 14.69140625 -9 15 C-8.06652642 13.24784894 -7.1280468 11.49836437 -6.1875 9.75 C-5.66542969 8.77546875 -5.14335938 7.8009375 -4.60546875 6.796875 C-3.20190402 4.35173547 -1.84860874 2.12716622 0 0 Z " fill="#4A6248" transform="translate(85,123)"/>
<path d="M0 0 C-2.35649699 2.68872443 -4.63578765 3.9193851 -7.9375 5.25 C-9.21947266 5.78367188 -9.21947266 5.78367188 -10.52734375 6.328125 C-13.17145366 7.04658772 -14.45868571 6.91982605 -17 6 C-16.34 6 -15.68 6 -15 6 C-15 5.34 -15 4.68 -15 4 C-13.29463574 3.26435267 -11.58867329 2.53004321 -9.87890625 1.8046875 C-8.32708898 1.14008384 -6.78683097 0.44855953 -5.25 -0.25 C-3 -1 -3 -1 0 0 Z " fill="#3D523E" transform="translate(157,215)"/>
<path d="M0 0 C0.33 1.32 0.66 2.64 1 4 C2.1446875 4.0928125 2.1446875 4.0928125 3.3125 4.1875 C6 5 6 5 7.875 7.4375 C8.24625 8.283125 8.6175 9.12875 9 10 C8.67 10.66 8.34 11.32 8 12 C5.50638429 10.79618552 3.31856917 9.54571278 1 8 C0.67 7.01 0.34 6.02 0 5 C-0.66 4.67 -1.32 4.34 -2 4 C-2 3.34 -2 2.68 -2 2 C-1.34 2 -0.68 2 0 2 C0 1.34 0 0.68 0 0 Z " fill="#5B8162" transform="translate(46,195)"/>
<path d="M0 0 C0.99 0.33 1.98 0.66 3 1 C2.85851011 2.6045556 2.71164314 4.20863767 2.5625 5.8125 C2.48128906 6.70582031 2.40007812 7.59914063 2.31640625 8.51953125 C2 11 2 11 1 14 C0.01 13.67 -0.98 13.34 -2 13 C-1.85966889 11.02043559 -1.7125877 9.04134859 -1.5625 7.0625 C-1.48128906 5.96035156 -1.40007812 4.85820313 -1.31640625 3.72265625 C-1 1 -1 1 0 0 Z " fill="#658167" transform="translate(190,83)"/>
<path d="M0 0 C0.66 0 1.32 0 2 0 C2.12375 0.969375 2.2475 1.93875 2.375 2.9375 C2.684375 4.4534375 2.684375 4.4534375 3 6 C3.66 6.33 4.32 6.66 5 7 C7.125 8.4375 7.125 8.4375 9 10 C9 10.66 9 11.32 9 12 C9.99 12 10.98 12 12 12 C11.67 12.66 11.34 13.32 11 14 C3.7542793 10.9192779 3.7542793 10.9192779 1 7.5625 C-0.0639922 4.83601998 -0.24854797 2.89972626 0 0 Z " fill="#586B5A" transform="translate(100,56)"/>
<path d="M0 0 C2.42705339 3.13649977 4.57172308 6.39669319 6.6875 9.75 C7.31011719 10.73484375 7.93273438 11.7196875 8.57421875 12.734375 C9.04472656 13.48203125 9.51523437 14.2296875 10 15 C7 15 7 15 4.4375 12.75 C0.52601216 8.33703936 -0.2693179 5.92499391 0 0 Z " fill="#505E4E" transform="translate(36,144)"/>
<path d="M0 0 C0.99 0 1.98 0 3 0 C4.03013277 1.64821244 5.03114628 3.31503702 6 5 C6.66 5 7.32 5 8 5 C8.45375 5.825 8.9075 6.65 9.375 7.5 C9.91125 8.325 10.4475 9.15 11 10 C12.32 10 13.64 10 15 10 C15 11.65 15 13.3 15 15 C10.95904408 12.7938565 7.92853256 10.19773868 4.6875 6.9375 C3.80449219 6.05964844 2.92148438 5.18179688 2.01171875 4.27734375 C0 2 0 2 0 0 Z " fill="#576D58" transform="translate(74,90)"/>
<path d="M0 0 C1.5625 1.75 1.5625 1.75 3 4 C2.6875 6.25 2.6875 6.25 2 8 C0.02 8.33 -1.96 8.66 -4 9 C-4.33 8.01 -4.66 7.02 -5 6 C-3.59554165 3.7363436 -1.8032087 1.9791315 0 0 Z " fill="#687464" transform="translate(37,84)"/>
<path d="M0 0 C0.99 0 1.98 0 3 0 C1.61219205 3.89006773 -0.2152227 6.96558708 -2.625 10.3125 C-3.25664063 11.19550781 -3.88828125 12.07851563 -4.5390625 12.98828125 C-5.02117188 13.65214844 -5.50328125 14.31601562 -6 15 C-6.66 14.01 -7.32 13.02 -8 12 C-7.67 11.01 -7.34 10.02 -7 9 C-6.01 9 -5.02 9 -4 9 C-3.896875 8.2575 -3.79375 7.515 -3.6875 6.75 C-2.94569253 3.78277013 -2.11319446 2.19447117 0 0 Z " fill="#606C5F" transform="translate(45,39)"/>
<path d="M0 0 C0 0.66 0 1.32 0 2 C-1.11375 2.309375 -2.2275 2.61875 -3.375 2.9375 C-6.7945155 3.82326483 -6.7945155 3.82326483 -9 5 C-11.21138855 4.91188555 -13.42042185 4.7570216 -15.625 4.5625 C-16.81351562 4.46066406 -18.00203125 4.35882813 -19.2265625 4.25390625 C-20.14179687 4.17011719 -21.05703125 4.08632812 -22 4 C-22 3.34 -22 2.68 -22 2 C-20.46279297 1.90912109 -20.46279297 1.90912109 -18.89453125 1.81640625 C-17.53384305 1.73194974 -16.17316657 1.64730433 -14.8125 1.5625 C-14.13896484 1.52318359 -13.46542969 1.48386719 -12.77148438 1.44335938 C-8.49785235 1.17234856 -4.23955259 0 0 0 Z " fill="#394E3B" transform="translate(129,187)"/>
<path d="M0 0 C1.98 0 3.96 0 6 0 C4.6062718 4.43458973 2.39417765 6.87378374 -1 10 C-2.34726118 5.95821645 -1.32004573 3.96013719 0 0 Z " fill="#60765F" transform="translate(180,144)"/>
<path d="M0 0 C0.66 0 1.32 0 2 0 C2.34803805 4.17645661 1.66218062 5.82586157 -1 9 C-1.69580267 10.31836295 -2.37224433 11.64791086 -3 13 C-3.99 12.01 -4.98 11.02 -6 10 C-5.05065487 8.32819726 -4.09026687 6.66266064 -3.125 5 C-2.59132813 4.071875 -2.05765625 3.14375 -1.5078125 2.1875 C-1.01023437 1.465625 -0.51265625 0.74375 0 0 Z " fill="#536054" transform="translate(115,127)"/>
<path d="M0 0 C0.99 0 1.98 0 3 0 C2.835 0.598125 2.67 1.19625 2.5 1.8125 C1.8885876 4.11344336 1.8885876 4.11344336 2 7 C1.01 8.485 1.01 8.485 0 10 C-0.66 10 -1.32 10 -2 10 C-2.33 10.99 -2.66 11.98 -3 13 C-4.23593891 9.29218328 -3.5678132 8.32489747 -2.0625 4.8125 C-1.68222656 3.91144531 -1.30195313 3.01039062 -0.91015625 2.08203125 C-0.60980469 1.39496094 -0.30945313 0.70789063 0 0 Z " fill="#687F62" transform="translate(19,69)"/>
<path d="M0 0 C1.98 0 3.96 0 6 0 C6.33 1.65 6.66 3.3 7 5 C6.01 5.66 5.02 6.32 4 7 C3.67 7.99 3.34 8.98 3 10 C2.34 10 1.68 10 1 10 C1 8.02 1 6.04 1 4 C1.66 4 2.32 4 3 4 C2.67 3.34 2.34 2.68 2 2 C1.01 2.495 1.01 2.495 0 3 C0 2.01 0 1.02 0 0 Z " fill="#658765" transform="translate(92,89)"/>
<path d="M0 0 C1.13583456 3.71727674 0.66670026 5.47051709 -1 9 C-1.66 9 -2.32 9 -3 9 C-3.18175781 9.69867188 -3.36351562 10.39734375 -3.55078125 11.1171875 C-3.80214844 12.02726562 -4.05351562 12.93734375 -4.3125 13.875 C-4.55613281 14.77992187 -4.79976562 15.68484375 -5.05078125 16.6171875 C-6 19 -6 19 -9 21 C-7.09718835 13.30529677 -4.00712657 6.82119281 0 0 Z " fill="#4D5847" transform="translate(22,60)"/>
<path d="M0 0 C0.33 0.99 0.66 1.98 1 3 C-4.16923077 7.92307692 -4.16923077 7.92307692 -8.375 8.3125 C-9.24125 8.209375 -10.1075 8.10625 -11 8 C-11.33 6.35 -11.66 4.7 -12 3 C-10.02 3.99 -10.02 3.99 -8 5 C-8 5.66 -8 6.32 -8 7 C-7.34 7 -6.68 7 -6 7 C-6 6.34 -6 5.68 -6 5 C-5.34 5 -4.68 5 -4 5 C-3.896875 4.360625 -3.79375 3.72125 -3.6875 3.0625 C-3.460625 2.381875 -3.23375 1.70125 -3 1 C-2.01 0.67 -1.02 0.34 0 0 Z " fill="#638567" transform="translate(112,88)"/>
<path d="M0 0 C2.31 0.66 4.62 1.32 7 2 C6.67 3.98 6.34 5.96 6 8 C4.68 8 3.36 8 2 8 C0.23537317 4.91190305 0 3.76687864 0 0 Z " fill="#638065" transform="translate(85,185)"/>
<path d="M0 0 C2.86867231 1.38264837 5.56024032 2.92148553 8.25 4.625 C8.95640625 5.07101563 9.6628125 5.51703125 10.390625 5.9765625 C10.92171875 6.31429687 11.4528125 6.65203125 12 7 C11.34 7.66 10.68 8.32 10 9 C7.18037462 8.25247141 4.55473394 7.42335176 2 6 C0.5 2.8125 0.5 2.8125 0 0 Z " fill="#526453" transform="translate(53,168)"/>
<path d="M0 0 C0.33 0 0.66 0 1 0 C1 1.98 1 3.96 1 6 C0.34 6 -0.32 6 -1 6 C-1 7.65 -1 9.3 -1 11 C-1.66 11 -2.32 11 -3 11 C-3.33 11.99 -3.66 12.98 -4 14 C-4.66 13.01 -5.32 12.02 -6 11 C-4.02 7.37 -2.04 3.74 0 0 Z M-6 14 C-4.515 14.99 -4.515 14.99 -3 16 C-3.99 16 -4.98 16 -6 16 C-6 15.34 -6 14.68 -6 14 Z " fill="#56694F" transform="translate(168,90)"/>
<path d="M0 0 C0.33 0.66 0.66 1.32 1 2 C1.66 2 2.32 2 3 2 C3 1.34 3 0.68 3 0 C3.66 0 4.32 0 5 0 C4.68232368 5.40049736 1.80003673 7.52337065 -2 11 C-2.66 10.67 -3.32 10.34 -4 10 C-2.95833333 8.27473958 -1.91666667 6.54947917 -0.875 4.82421875 C0.21623999 2.88638074 0.21623999 2.88638074 0 0 Z " fill="#6C7268" transform="translate(54,25)"/>
<path d="M0 0 C-2.52788007 2.79872437 -4.20411134 4.45773019 -8 5 C-8.625 3.125 -8.625 3.125 -9 1 C-5.66794923 -2.33205077 -3.95714908 -2.63809939 0 0 Z " fill="#5D765D" transform="translate(50,142)"/>
<path d="M0 0 C0.33 0.66 0.66 1.32 1 2 C1.66 2 2.32 2 3 2 C3.99 4.97 4.98 7.94 6 11 C4.68 11.33 3.36 11.66 2 12 C1.29925156 8.846632 1 6.27275026 1 3 C0.01 2.67 -0.98 2.34 -2 2 C-1.34 1.34 -0.68 0.68 0 0 Z " fill="#627563" transform="translate(55,132)"/>
<path d="M0 0 C0.99 0 1.98 0 3 0 C2.67 1.32 2.34 2.64 2 4 C1.01 4 0.02 4 -1 4 C-1.12375 4.763125 -1.2475 5.52625 -1.375 6.3125 C-2 9 -2 9 -4 12 C-4.66 12 -5.32 12 -6 12 C-5.56629155 7.2292071 -3.35665609 3.36635741 0 0 Z " fill="#426444" transform="translate(115,76)"/>
<path d="M0 0 C-0.54074373 3.78520613 -2.07572746 5.59177555 -5 8 C-5.99 8 -6.98 8 -8 8 C-7.32253522 3.25774652 -4.9532836 0 0 0 Z " fill="#527251" transform="translate(49,61)"/>
<path d="M0 0 C0.33 0.66 0.66 1.32 1 2 C4.465 1.505 4.465 1.505 8 1 C7.67 1.99 7.34 2.98 7 4 C5.02 4.33 3.04 4.66 1 5 C1 5.66 1 6.32 1 7 C0.01 7.33 -0.98 7.66 -2 8 C-1.7215625 7.1028125 -1.7215625 7.1028125 -1.4375 6.1875 C-0.77906313 3.83591238 -0.77906313 3.83591238 -2 1 C-1.34 0.67 -0.68 0.34 0 0 Z " fill="#658166" transform="translate(159,175)"/>
<path d="M0 0 C0.928125 0.33 1.85625 0.66 2.8125 1 C5.92029291 2.14967004 5.92029291 2.14967004 9 2 C9.66 3.32 10.32 4.64 11 6 C9 7 9 7 6.6171875 6.22265625 C5.71226563 5.83980469 4.80734375 5.45695313 3.875 5.0625 C2.96492188 4.68222656 2.05484375 4.30195313 1.1171875 3.91015625 C0.41851562 3.60980469 -0.28015625 3.30945313 -1 3 C-0.67 2.01 -0.34 1.02 0 0 Z " fill="#586B56" transform="translate(55,159)"/>
<path d="M0 0 C-1.36370299 2.99220268 -2.94908083 5.29026529 -5.125 7.75 C-5.93324219 8.67039062 -5.93324219 8.67039062 -6.7578125 9.609375 C-7.16773438 10.06828125 -7.57765625 10.5271875 -8 11 C-8.609375 9.1640625 -8.609375 9.1640625 -9 7 C-4.33333333 0 -4.33333333 0 0 0 Z " fill="#586E5C" transform="translate(147,76)"/>
<path d="M0 0 C1 3 1 3 0.00390625 5.04296875 C-0.47175781 5.75066406 -0.94742188 6.45835937 -1.4375 7.1875 C-1.91058594 7.90292969 -2.38367188 8.61835938 -2.87109375 9.35546875 C-3.42990234 10.16951172 -3.42990234 10.16951172 -4 11 C-5.65 10.67 -7.3 10.34 -9 10 C-7.68 8.68 -6.36 7.36 -5 6 C-4.34 6.33 -3.68 6.66 -3 7 C-2.814375 5.5459375 -2.814375 5.5459375 -2.625 4.0625 C-2.41875 3.051875 -2.2125 2.04125 -2 1 C-1.34 0.67 -0.68 0.34 0 0 Z " fill="#4C604A" transform="translate(107,132)"/>
<path d="M0 0 C0.33 0.66 0.66 1.32 1 2 C0.34 2 -0.32 2 -1 2 C-1.20625 2.598125 -1.4125 3.19625 -1.625 3.8125 C-3.50926082 6.81018767 -5.81132084 7.61361776 -9 9 C-9.33 7.68 -9.66 6.36 -10 5 C-8.35 4.67 -6.7 4.34 -5 4 C-4.67 3.01 -4.34 2.02 -4 1 C-1.9375 0.3125 -1.9375 0.3125 0 0 Z " fill="#546754" transform="translate(127,117)"/>
<path d="M0 0 C0.33 0.99 0.66 1.98 1 3 C-0.8125 6.1875 -0.8125 6.1875 -3 9 C-3.66 9 -4.32 9 -5 9 C-5 6.36 -5 3.72 -5 1 C-2 0 -2 0 0 0 Z " fill="#637C63" transform="translate(131,95)"/>
<path d="M0 0 C-1.45255699 3.82946843 -3.42895561 5.12050295 -7 7 C-7.33 5.35 -7.66 3.7 -8 2 C-4.91190305 0.23537317 -3.76687864 0 0 0 Z " fill="#4F5047" transform="translate(78,14)"/>
<path d="M0 0 C2.00720923 0.28674418 4.0085944 0.61866701 6 1 C6.33 1.99 6.66 2.98 7 4 C6.2575 4.144375 5.515 4.28875 4.75 4.4375 C2.47972261 4.90187492 0.24240521 5.41863569 -2 6 C-1.125 1.125 -1.125 1.125 0 0 Z " fill="#627E66" transform="translate(73,181)"/>
<path d="M0 0 C0.66 0 1.32 0 2 0 C2 2.64 2 5.28 2 8 C3.32 8 4.64 8 6 8 C6 8.66 6 9.32 6 10 C4.34385343 10.38218767 2.67542976 10.71395102 1 11 C0 10 0 10 -0.09765625 7.71484375 C-0.08605469 6.79832031 -0.07445312 5.88179687 -0.0625 4.9375 C-0.05347656 4.01839844 -0.04445312 3.09929687 -0.03515625 2.15234375 C-0.02355469 1.44207031 -0.01195312 0.73179687 0 0 Z " fill="#657068" transform="translate(149,134)"/>
<path d="M0 0 C1.98 0 3.96 0 6 0 C5.1875 2.4375 5.1875 2.4375 4 5 C3.01 5.33 2.02 5.66 1 6 C0.34 5.67 -0.32 5.34 -1 5 C-0.67 3.35 -0.34 1.7 0 0 Z " fill="#4A6D49" transform="translate(160,116)"/>
<path d="M0 0 C0.99 0.66 1.98 1.32 3 2 C2.67 5.3 2.34 8.6 2 12 C0 9 0 9 0 6 C-0.66 5.67 -1.32 5.34 -2 5 C-1.34 3.35 -0.68 1.7 0 0 Z " fill="#6E8871" transform="translate(102,50)"/>
<path d="M0 0 C5.75 0.875 5.75 0.875 8 2 C8 2.99 8 3.98 8 5 C6.25 5.6875 6.25 5.6875 4 6 C1.75 4.75 1.75 4.75 0 3 C0 2.01 0 1.02 0 0 Z " fill="#4C4D48" transform="translate(152,15)"/>
<path d="M0 0 C0.99 0.33 1.98 0.66 3 1 C1.73965413 2.50882261 0.46636351 4.00684044 -0.8125 5.5 C-1.52019531 6.3353125 -2.22789062 7.170625 -2.95703125 8.03125 C-5 10 -5 10 -8 10 C-7.67 9.01 -7.34 8.02 -7 7 C-6.195625 6.71125 -5.39125 6.4225 -4.5625 6.125 C-1.76071559 5.22055781 -1.76071559 5.22055781 -0.6875 2.375 C-0.460625 1.59125 -0.23375 0.8075 0 0 Z " fill="#526A54" transform="translate(192,184)"/>
<path d="M0 0 C0.66 0.33 1.32 0.66 2 1 C2.59355614 3.64860427 2.74209269 6.29197322 3 9 C2.34 9 1.68 9 1 9 C0.67 9.66 0.34 10.32 0 11 C-1.85776765 7.86501708 -2.20140476 5.62528568 -2 2 C-1.34 2 -0.68 2 0 2 C0 1.34 0 0.68 0 0 Z " fill="#738975" transform="translate(161,153)"/>
<path d="M0 0 C-1.14453125 1.48828125 -1.14453125 1.48828125 -3 3 C-5.69921875 3.29296875 -5.69921875 3.29296875 -8.6875 3.1875 C-9.68136719 3.16042969 -10.67523438 3.13335937 -11.69921875 3.10546875 C-12.45847656 3.07066406 -13.21773438 3.03585938 -14 3 C-14.33 2.34 -14.66 1.68 -15 1 C-9.92928099 0.28832014 -5.11791642 -0.10662326 0 0 Z " fill="#567155" transform="translate(126,222)"/>
<path d="M0 0 C0.79921875 0.00902344 1.5984375 0.01804688 2.421875 0.02734375 C3.02515625 0.03894531 3.6284375 0.05054688 4.25 0.0625 C4.25 0.7225 4.25 1.3825 4.25 2.0625 C0.1972484 3.04498524 -3.58861737 3.14409574 -7.75 3.0625 C-8.08 2.4025 -8.41 1.7425 -8.75 1.0625 C-5.75519083 0.1901588 -3.11424089 -0.04579766 0 0 Z " fill="#405A43" transform="translate(130.75,221.9375)"/>
<path d="M0 0 C0.66 0 1.32 0 2 0 C2.84454356 3.37817425 3.10844919 5.67465243 2 9 C0.35 7.35 -1.3 5.7 -3 4 C-2.34 3.67 -1.68 3.34 -1 3 C-0.67 2.01 -0.34 1.02 0 0 Z " fill="#6A8268" transform="translate(29,179)"/>
<path d="M0 0 C1.2077558 3.62326739 0.54311128 4.64146369 -1 8 C-2.32 7.34 -3.64 6.68 -5 6 C-4.67 4.35 -4.34 2.7 -4 1 C-2.68 0.67 -1.36 0.34 0 0 Z " fill="#78897B" transform="translate(189,112)"/>
<path d="M0 0 C-1.09068668 3.77545388 -1.9083091 6.47043472 -5 9 C-5.33 8.34 -5.66 7.68 -6 7 C-6.99 7.495 -6.99 7.495 -8 8 C-6.48291727 4.46014029 -4.24676932 0 0 0 Z " fill="#66775D" transform="translate(163,102)"/>
<path d="M0 0 C3 0 3 0 4.6875 1.5 C5.120625 1.995 5.55375 2.49 6 3 C5.67 3.99 5.34 4.98 5 6 C2.03 5.505 2.03 5.505 -1 5 C-0.67 3.35 -0.34 1.7 0 0 Z " fill="#65856E" transform="translate(151,166)"/>
<path d="M0 0 C0.66 0.33 1.32 0.66 2 1 C2 3.64 2 6.28 2 9 C1.01 9.495 1.01 9.495 0 10 C-0.66 7.03 -1.32 4.06 -2 1 C-1.34 0.67 -0.68 0.34 0 0 Z " fill="#778F6A" transform="translate(167,145)"/>
<path d="M0 0 C0.66 0 1.32 0 2 0 C1.49259538 4.39750672 -1.08293314 6.86948922 -4 10 C-4.66 10 -5.32 10 -6 10 C-6 9.01 -6 8.02 -6 7 C-5.01 6.34 -4.02 5.68 -3 5 C-2.484375 4.13375 -1.96875 3.2675 -1.4375 2.375 C-0.963125 1.59125 -0.48875 0.8075 0 0 Z " fill="#475A48" transform="translate(96,146)"/>
<path d="M0 0 C0.66 0 1.32 0 2 0 C2 2.64 2 5.28 2 8 C0.02 8.99 0.02 8.99 -2 10 C-2.25 3.375 -2.25 3.375 0 0 Z " fill="#658165" transform="translate(12,139)"/>
<path d="M0 0 C0.33 0.66 0.66 1.32 1 2 C3.52733235 2.65555119 3.52733235 2.65555119 6 3 C5.67 4.65 5.34 6.3 5 8 C4.01 7.67 3.02 7.34 2 7 C2 6.34 2 5.68 2 5 C1.01 4.67 0.02 4.34 -1 4 C-0.67 2.68 -0.34 1.36 0 0 Z " fill="#778A79" transform="translate(120,42)"/>
<path d="M0 0 C0.66 1.32 1.32 2.64 2 4 C1.34 4.66 0.68 5.32 0 6 C-0.99 6 -1.98 6 -3 6 C-3 5.01 -3 4.02 -3 3 C-3.66 3 -4.32 3 -5 3 C-5 3.66 -5 4.32 -5 5 C-5.66 5 -6.32 5 -7 5 C-7 4.01 -7 3.02 -7 2 C-5.34385343 1.61781233 -3.67542976 1.28604898 -2 1 C-1.67 1.33 -1.34 1.66 -1 2 C-0.67 1.34 -0.34 0.68 0 0 Z " fill="#54584F" transform="translate(62,22)"/>
<path d="M0 0 C1.32 0 2.64 0 4 0 C4 0.99 4 1.98 4 3 C6.33214148 4.20628008 8.49642139 5.1654738 11 6 C11 6.99 11 7.98 11 9 C5.70841026 7.59928507 3.22521956 4.14512755 0 0 Z " fill="#4C644F" transform="translate(43,200)"/>
<path d="M0 0 C0.99 0.33 1.98 0.66 3 1 C4.1875 4.0625 4.1875 4.0625 5 7 C2.69 6.34 0.38 5.68 -2 5 C-1.125 1.125 -1.125 1.125 0 0 Z " fill="#616A60" transform="translate(115,0)"/>
<path d="M0 0 C1.32 0 2.64 0 4 0 C4 3.3 4 6.6 4 10 C1.997499 7.997499 1.06784629 6.593341 0 4 C0 2.68 0 1.36 0 0 Z " fill="#658A69" transform="translate(179,127)"/>
<path d="M0 0 C1.32 0 2.64 0 4 0 C4.08004482 3.5219721 4.04005702 6.61981469 3 10 C2.34 10 1.68 10 1 10 C0.67 6.7 0.34 3.4 0 0 Z " fill="#4F7C53" transform="translate(103,122)"/>
<path d="M0 0 C4.28324091 2.51407619 6.64531705 4.12314139 8 9 C6.68 8.67 5.36 8.34 4 8 C3.67 6.68 3.34 5.36 3 4 C2.34 4 1.68 4 1 4 C0.67 4.66 0.34 5.32 0 6 C-1 3 -1 3 0 0 Z " fill="#4A754C" transform="translate(178,61)"/>
<path d="M0 0 C1.65 0 3.3 0 5 0 C5.625 2.3125 5.625 2.3125 6 5 C5.01 6.485 5.01 6.485 4 8 C3.34 8 2.68 8 2 8 C2.04125 7.236875 2.0825 6.47375 2.125 5.6875 C2.22080824 2.77281584 2.22080824 2.77281584 0 0 Z " fill="#586D57" transform="translate(104,15)"/>
<path d="M0 0 C0.99 0.66 1.98 1.32 3 2 C2.67 2.66 2.34 3.32 2 4 C1.34 4 0.68 4 0 4 C0 4.66 0 5.32 0 6 C-1.65 6.66 -3.3 7.32 -5 8 C-5 7.34 -5 6.68 -5 6 C-5.66 5.67 -6.32 5.34 -7 5 C-5.35 5 -3.7 5 -2 5 C-2 4.01 -2 3.02 -2 2 C-1.34 2 -0.68 2 0 2 C0 1.34 0 0.68 0 0 Z " fill="#4D5750" transform="translate(173,157)"/>
<path d="M0 0 C2.64 0.33 5.28 0.66 8 1 C8 1.66 8 2.32 8 3 C4.7 3.33 1.4 3.66 -2 4 C-1.34 2.68 -0.68 1.36 0 0 Z " fill="#5A6E5C" transform="translate(135,121)"/>
<path d="M0 0 C1.36682561 2.73365122 0.84683011 4.10666379 0 7 C-1.5625 8.8125 -1.5625 8.8125 -3 10 C-3.66 9.67 -4.32 9.34 -5 9 C-3.375 2.25 -3.375 2.25 0 0 Z " fill="#74876F" transform="translate(200,119)"/>
<path d="M0 0 C0.33 0 0.66 0 1 0 C0.38909774 6.47556391 0.38909774 6.47556391 -1.4375 8.9375 C-3 10 -3 10 -5 10 C-3.66654496 6.40992874 -2.1056769 3.20429093 0 0 Z " fill="#495A48" transform="translate(91,112)"/>
<path d="M0 0 C0.66 0 1.32 0 2 0 C2.33 2.31 2.66 4.62 3 7 C2.01 6.34 1.02 5.68 0 5 C-1.32 5 -2.64 5 -4 5 C-3.67 3.68 -3.34 2.36 -3 1 C-2.01 1.33 -1.02 1.66 0 2 C0 1.34 0 0.68 0 0 Z " fill="#748674" transform="translate(115,37)"/>
<path d="M0 0 C0.33 0.99 0.66 1.98 1 3 C2.65 2.67 4.3 2.34 6 2 C6.33 2.66 6.66 3.32 7 4 C6.34 4 5.68 4 5 4 C5 4.66 5 5.32 5 6 C5.66 6.33 6.32 6.66 7 7 C4.03 6.505 4.03 6.505 1 6 C0.67 4.02 0.34 2.04 0 0 Z " fill="#59745D" transform="translate(39,193)"/>
<path d="M0 0 C0.33 1.32 0.66 2.64 1 4 C-1.31 4.33 -3.62 4.66 -6 5 C-6 4.01 -6 3.02 -6 2 C-2.25 0 -2.25 0 0 0 Z " fill="#637E67" transform="translate(107,189)"/>
<path d="M0 0 C1.32 0 2.64 0 4 0 C4 2.31 4 4.62 4 7 C3.01 7 2.02 7 1 7 C0.67 4.69 0.34 2.38 0 0 Z " fill="#5E715D" transform="translate(162,154)"/>
<path d="M0 0 C1 3 1 3 1 7 C0.34 7 -0.32 7 -1 7 C-1.33 9.31 -1.66 11.62 -2 14 C-2.66 13.67 -3.32 13.34 -4 13 C-3.71682074 11.39431334 -3.42312209 9.79047953 -3.125 8.1875 C-2.96257812 7.29417969 -2.80015625 6.40085937 -2.6328125 5.48046875 C-2 3 -2 3 0 0 Z " fill="#567058" transform="translate(95,104)"/>
<path d="M0 0 C1.32 1.32 2.64 2.64 4 4 C3.34 5.65 2.68 7.3 2 9 C0.4375 7.3125 0.4375 7.3125 -1 5 C-0.6875 2.25 -0.6875 2.25 0 0 Z " fill="#68806B" transform="translate(89,80)"/>
<path d="M0 0 C1.65 1.65 3.3 3.3 5 5 C4.34 5.66 3.68 6.32 3 7 C1.68 6.34 0.36 5.68 -1 5 C-0.67 3.35 -0.34 1.7 0 0 Z " fill="#728573" transform="translate(74,65)"/>
<path d="M0 0 C-0.66 1.98 -1.32 3.96 -2 6 C-3.65 5.67 -5.3 5.34 -7 5 C-7 4.34 -7 3.68 -7 3 C-2.61538462 0 -2.61538462 0 0 0 Z " fill="#647664" transform="translate(139,57)"/>
<path d="M0 0 C0.66 0 1.32 0 2 0 C2.66 2.97 3.32 5.94 4 9 C3.01 9 2.02 9 1 9 C-1.09230769 4.56923077 -1.09230769 4.56923077 -0.625 1.6875 C-0.41875 1.130625 -0.2125 0.57375 0 0 Z " fill="#637262" transform="translate(125,47)"/>
<path d="M0 0 C1.98 0 3.96 0 6 0 C6.33 1.65 6.66 3.3 7 5 C4.11424181 4.60196439 3.17810487 4.20990931 1.25 1.9375 C0.8375 1.298125 0.425 0.65875 0 0 Z " fill="#90A591" transform="translate(172,32)"/>
<path d="M0 0 C0.66 0.33 1.32 0.66 2 1 C0.68 1.99 -0.64 2.98 -2 4 C-1.34 2.68 -0.68 1.36 0 0 Z M-5 1 C-4.67 1.99 -4.34 2.98 -4 4 C-3.34 4.33 -2.68 4.66 -2 5 C-3.65 5.66 -5.3 6.32 -7 7 C-7.66 6.34 -8.32 5.68 -9 5 C-7.68 3.68 -6.36 2.36 -5 1 Z " fill="#6C7F6D" transform="translate(179,161)"/>
<path d="M0 0 C1.32 0.33 2.64 0.66 4 1 C1.47043472 4.0916909 -1.22454612 4.90931332 -5 6 C-5.33 5.01 -5.66 4.02 -6 3 C-4.02 3 -2.04 3 0 3 C0 2.01 0 1.02 0 0 Z " fill="#627363" transform="translate(83,158)"/>
<path d="M0 0 C0.66 0.33 1.32 0.66 2 1 C2.25 3.3125 2.25 3.3125 2 6 C0 7.8125 0 7.8125 -2 9 C-2.25 3.375 -2.25 3.375 0 0 Z " fill="#4C5C4A" transform="translate(187,145)"/>
<path d="M0 0 C1.98 0.66 3.96 1.32 6 2 C6.12375 2.804375 6.2475 3.60875 6.375 4.4375 C6.684375 5.7059375 6.684375 5.7059375 7 7 C7.66 7.33 8.32 7.66 9 8 C8.01 8 7.02 8 6 8 C4.39453125 6.25 4.39453125 6.25 2.8125 4 C2.28269531 3.2575 1.75289063 2.515 1.20703125 1.75 C0.80871094 1.1725 0.41039063 0.595 0 0 Z " fill="#495B4A" transform="translate(117,142)"/>
<path d="M0 0 C0.66 0 1.32 0 2 0 C2.66 3.3 3.32 6.6 4 10 C2.68 9.01 1.36 8.02 0 7 C-0.25 3.3125 -0.25 3.3125 0 0 Z " fill="#667E67" transform="translate(210,76)"/>
<path d="M0 0 C0.99 0.33 1.98 0.66 3 1 C3.33 1.99 3.66 2.98 4 4 C3.01 4.33 2.02 4.66 1 5 C0.67 5.66 0.34 6.32 0 7 C-0.99 7 -1.98 7 -3 7 C-3 6.01 -3 5.02 -3 4 C-2.01 3.34 -1.02 2.68 0 2 C0 1.34 0 0.68 0 0 Z " fill="#495B49" transform="translate(126,62)"/>
<path d="M0 0 C0.99 0.33 1.98 0.66 3 1 C3 2.98 3 4.96 3 7 C2.01 7 1.02 7 0 7 C0 6.01 0 5.02 0 4 C-0.66 3.67 -1.32 3.34 -2 3 C-2 2.34 -2 1.68 -2 1 C-1.34 0.67 -0.68 0.34 0 0 Z " fill="#45764E" transform="translate(38,182)"/>
<path d="M0 0 C-0.99 0.33 -1.98 0.66 -3 1 C-3 1.66 -3 2.32 -3 3 C-3.66 3 -4.32 3 -5 3 C-5 3.66 -5 4.32 -5 5 C-5.99 5 -6.98 5 -8 5 C-7.8125 3.125 -7.8125 3.125 -7 1 C-2.66666667 -1.33333333 -2.66666667 -1.33333333 0 0 Z " fill="#4C5D4A" transform="translate(168,172)"/>
<path d="M0 0 C1.98 0.66 3.96 1.32 6 2 C5.67 3.32 5.34 4.64 5 6 C3.68 5.67 2.36 5.34 1 5 C0.67 3.35 0.34 1.7 0 0 Z " fill="#627965" transform="translate(61,144)"/>
<path d="M0 0 C1.0625 1.875 1.0625 1.875 2 4 C1.67 4.66 1.34 5.32 1 6 C0.34 6 -0.32 6 -1 6 C-1 6.66 -1 7.32 -1 8 C-1.66 8 -2.32 8 -3 8 C-3 7.34 -3 6.68 -3 6 C-3.66 5.67 -4.32 5.34 -5 5 C-3.35 3.35 -1.7 1.7 0 0 Z " fill="#485B49" transform="translate(107,87)"/>
<path d="M0 0 C1.9375 0.75 1.9375 0.75 4 2 C4.75 4.125 4.75 4.125 5 6 C2.03 5.505 2.03 5.505 -1 5 C-0.67 3.35 -0.34 1.7 0 0 Z " fill="#4E6150" transform="translate(92,84)"/>
<path d="M0 0 C0.33 0 0.66 0 1 0 C1.33 3.3 1.66 6.6 2 10 C1.01 10.66 0.02 11.32 -1 12 C-1.02712066 10.56260487 -1.04645067 9.12506137 -1.0625 7.6875 C-1.07410156 6.88699219 -1.08570313 6.08648437 -1.09765625 5.26171875 C-1 3 -1 3 0 0 Z " fill="#6E8770" transform="translate(45,80)"/>
<path d="M0 0 C1.2077558 3.62326739 0.54311128 4.64146369 -1 8 C-2.32 7.67 -3.64 7.34 -5 7 C-3.70700306 4.11562221 -2.34058637 2.12780579 0 0 Z " fill="#71846B" transform="translate(174,81)"/>
<path d="M0 0 C0.66 0 1.32 0 2 0 C2.33 1.65 2.66 3.3 3 5 C1.35 5.33 -0.3 5.66 -2 6 C-2.33 5.34 -2.66 4.68 -3 4 C-1.625 2 -1.625 2 0 0 Z " fill="#353631" transform="translate(68,17)"/>
<path d="M0 0 C-0.99 0.33 -1.98 0.66 -3 1 C-3 1.66 -3 2.32 -3 3 C-3.99 3 -4.98 3 -6 3 C-6 3.99 -6 4.98 -6 6 C-7.32 5.34 -8.64 4.68 -10 4 C-7.16124653 -0.25813021 -4.8137938 -0.13010254 0 0 Z " fill="#516450" transform="translate(110,9)"/>
<path d="M0 0 C0.66 0.99 1.32 1.98 2 3 C0.35 4.65 -1.3 6.3 -3 8 C-3.66 7.67 -4.32 7.34 -5 7 C-1.125 1.125 -1.125 1.125 0 0 Z " fill="#5B6C5B" transform="translate(178,158)"/>
<path d="M0 0 C0.99 0.33 1.98 0.66 3 1 C3 1.66 3 2.32 3 3 C4.32 3.33 5.64 3.66 7 4 C6.67 5.32 6.34 6.64 6 8 C1.125 3.375 1.125 3.375 0 0 Z " fill="#617962" transform="translate(40,156)"/>
<path d="M0 0 C1.98 0 3.96 0 6 0 C4.35 1.65 2.7 3.3 1 5 C-0.32 4.34 -1.64 3.68 -3 3 C-2.01 3 -1.02 3 0 3 C0 2.01 0 1.02 0 0 Z " fill="#849388" transform="translate(154,138)"/>
<path d="M0 0 C0.99 0.33 1.98 0.66 3 1 C1.70700306 3.88437779 0.34058637 5.87219421 -2 8 C-2.33 7.01 -2.66 6.02 -3 5 C-1.5625 2.3125 -1.5625 2.3125 0 0 Z " fill="#7B897B" transform="translate(110,126)"/>
<path d="M0 0 C2.97 0.495 2.97 0.495 6 1 C6 1.99 6 2.98 6 4 C3.50907189 5.24546405 2.58919267 4.7767578 0 4 C0 2.68 0 1.36 0 0 Z " fill="#899E88" transform="translate(128,117)"/>
<path d="M0 0 C0 0.66 0 1.32 0 2 C-0.99 2.33 -1.98 2.66 -3 3 C-3.66 3.66 -4.32 4.32 -5 5 C-7.625 4.625 -7.625 4.625 -10 4 C-7.18342017 0.590456 -4.32639749 0 0 0 Z " fill="#708072" transform="translate(140,115)"/>
<path d="M0 0 C0.99 0 1.98 0 3 0 C3.66 1.98 4.32 3.96 5 6 C2.525 5.01 2.525 5.01 0 4 C0 2.68 0 1.36 0 0 Z " fill="#618061" transform="translate(60,207)"/>
<path d="M0 0 C0.99 0 1.98 0 3 0 C3 0.66 3 1.32 3 2 C2.34 2 1.68 2 1 2 C0.67 3.32 0.34 4.64 0 6 C-1.32 5.67 -2.64 5.34 -4 5 C-2.1875 2.5 -2.1875 2.5 0 0 Z " fill="#527354" transform="translate(59,205)"/>
<path d="M0 0 C0.33 1.32 0.66 2.64 1 4 C-1.6666419 5.33332095 -3.16680303 4.67102033 -6 4 C-6 3.34 -6 2.68 -6 2 C-4.02 1.34 -2.04 0.68 0 0 Z " fill="#4B584C" transform="translate(151,179)"/>
<path d="M0 0 C1.32 0.33 2.64 0.66 4 1 C4 1.66 4 2.32 4 3 C6.97 3.495 6.97 3.495 10 4 C9.67 4.66 9.34 5.32 9 6 C5.32579134 5.69381595 4.21864487 5.24228216 1.6875 2.4375 C1.130625 1.633125 0.57375 0.82875 0 0 Z " fill="#515E53" transform="translate(146,168)"/>
<path d="M0 0 C1.65 0 3.3 0 5 0 C5 1.98 5 3.96 5 6 C3.2925002 4.71937515 1.62626404 3.38232443 0 2 C0 1.34 0 0.68 0 0 Z " fill="#546851" transform="translate(46,153)"/>
<path d="M0 0 C0.99 0.33 1.98 0.66 3 1 C3.33 2.98 3.66 4.96 4 7 C2.68 6.67 1.36 6.34 0 6 C0 4.02 0 2.04 0 0 Z " fill="#618462" transform="translate(71,144)"/>
<path d="M0 0 C0.66 0 1.32 0 2 0 C2.33 1.32 2.66 2.64 3 4 C2.01 4 1.02 4 0 4 C-0.33 4.66 -0.66 5.32 -1 6 C-1.66 5.67 -2.32 5.34 -3 5 C-1.125 1.125 -1.125 1.125 0 0 Z " fill="#516B4F" transform="translate(75,140)"/>
<path d="M0 0 C0.66 0 1.32 0 2 0 C2.33 0.99 2.66 1.98 3 3 C2.67 3.66 2.34 4.32 2 5 C1.34 5 0.68 5 0 5 C-0.33 5.66 -0.66 6.32 -1 7 C-1 6.34 -1 5.68 -1 5 C-1.66 4.67 -2.32 4.34 -3 4 C-1.625 2 -1.625 2 0 0 Z " fill="#566552" transform="translate(191,139)"/>
<path d="M0 0 C0.99 0.33 1.98 0.66 3 1 C3.33 2.65 3.66 4.3 4 6 C1.03 5.505 1.03 5.505 -2 5 C-1.34 3.35 -0.68 1.7 0 0 Z " fill="#424F41" transform="translate(54,128)"/>
<path d="M0 0 C1.65 0 3.3 0 5 0 C5 3 5 3 3 6 C2.34 5.67 1.68 5.34 1 5 C0.375 2.4375 0.375 2.4375 0 0 Z " fill="#647E63" transform="translate(116,125)"/>
<path d="M0 0 C0.66 0 1.32 0 2 0 C1.67 1.98 1.34 3.96 1 6 C0.01 6.33 -0.98 6.66 -2 7 C-1.125 1.125 -1.125 1.125 0 0 Z " fill="#637262" transform="translate(115,119)"/>
<path d="M0 0 C1.32 0.33 2.64 0.66 4 1 C4 2.32 4 3.64 4 5 C3.01 5.33 2.02 5.66 1 6 C0 5 0 5 -0.0625 2.4375 C-0.041875 1.633125 -0.02125 0.82875 0 0 Z " fill="#648864" transform="translate(89,100)"/>
<path d="M0 0 C0.66 0.33 1.32 0.66 2 1 C2 1.66 2 2.32 2 3 C2.66 3.33 3.32 3.66 4 4 C3.01 4.99 2.02 5.98 1 7 C0.34 6.67 -0.32 6.34 -1 6 C-1.042721 4.33388095 -1.04063832 2.66617115 -1 1 C-0.67 0.67 -0.34 0.34 0 0 Z " fill="#69896E" transform="translate(133,87)"/>
<path d="M0 0 C0.66 0 1.32 0 2 0 C1.67 1.98 1.34 3.96 1 6 C0.34 6 -0.32 6 -1 6 C-0.67 6.99 -0.34 7.98 0 9 C-0.66 9 -1.32 9 -2 9 C-1.125 2.25 -1.125 2.25 0 0 Z " fill="#778377" transform="translate(127,56)"/>
<path d="M0 0 C2.0625 0.4375 2.0625 0.4375 4 1 C3.6875 2.9375 3.6875 2.9375 3 5 C2.01 5.33 1.02 5.66 0 6 C-0.38218767 4.34385343 -0.71395102 2.67542976 -1 1 C-0.67 0.67 -0.34 0.34 0 0 Z " fill="#4F6756" transform="translate(52,60)"/>
<path d="M0 0 C2.125 0.9375 2.125 0.9375 4 2 C3.67 2.99 3.34 3.98 3 5 C2.34 4.67 1.68 4.34 1 4 C0.01 4.33 -0.98 4.66 -2 5 C-2 3.68 -2 2.36 -2 1 C-1.34 0.67 -0.68 0.34 0 0 Z " fill="#607D60" transform="translate(86,218)"/>
<path d="M0 0 C0.66 0.33 1.32 0.66 2 1 C2 1.66 2 2.32 2 3 C2.66 3 3.32 3 4 3 C4 3.99 4 4.98 4 6 C3.34 6 2.68 6 2 6 C2 5.34 2 4.68 2 4 C1.34 4 0.68 4 0 4 C0 4.66 0 5.32 0 6 C-0.66 6 -1.32 6 -2 6 C-1.34 4.02 -0.68 2.04 0 0 Z " fill="#507E55" transform="translate(88,145)"/>
<path d="M0 0 C0.66 0 1.32 0 2 0 C0.125 4.75 0.125 4.75 -1 7 C-1.66 7 -2.32 7 -3 7 C-3 5.35 -3 3.7 -3 2 C-2.01 2 -1.02 2 0 2 C0 1.34 0 0.68 0 0 Z " fill="#4C5D48" transform="translate(184,144)"/>
<path d="M0 0 C3.2542015 2.83430453 4.5206753 4.68607774 5 9 C2.5 6.75 2.5 6.75 0 4 C0 2.68 0 1.36 0 0 Z " fill="#486946" transform="translate(129,130)"/>
<path d="M0 0 C1.32 0.99 2.64 1.98 4 3 C3.01 3.495 3.01 3.495 2 4 C1.01 5.485 1.01 5.485 0 7 C-0.99 6.67 -1.98 6.34 -3 6 C-2.01 4.02 -1.02 2.04 0 0 Z " fill="#536A52" transform="translate(52,133)"/>
<path d="M0 0 C2.29633824 3.44450737 2.54016485 5.93812283 3 10 C2.01 10.495 2.01 10.495 1 11 C-0.20272819 8.59454362 -0.10071472 7.05003047 -0.0625 4.375 C-0.05347656 3.55773437 -0.04445312 2.74046875 -0.03515625 1.8984375 C-0.02355469 1.27195312 -0.01195312 0.64546875 0 0 Z " fill="#5F765D" transform="translate(200,96)"/>
<path d="M0 0 C0.66 0 1.32 0 2 0 C1.67 2.97 1.34 5.94 1 9 C0.34 9 -0.32 9 -1 9 C-1.125 2.25 -1.125 2.25 0 0 Z " fill="#4E6354" transform="translate(26,78)"/>
<path d="M0 0 C3.0916909 2.52956528 3.90931332 5.22454612 5 9 C4.34 9 3.68 9 3 9 C2.67 7.68 2.34 6.36 2 5 C1.34 5 0.68 5 0 5 C-0.33 4.01 -0.66 3.02 -1 2 C-0.67 1.34 -0.34 0.68 0 0 Z " fill="#3E4F40" transform="translate(187,71)"/>
<path d="M0 0 C0 0.99 0 1.98 0 3 C-0.99 3 -1.98 3 -3 3 C-3 3.66 -3 4.32 -3 5 C-4.32 4.67 -5.64 4.34 -7 4 C-5.53303752 1.06607504 -3.25996861 0 0 0 Z " fill="#608061" transform="translate(39,186)"/>
<path d="M0 0 C0.99 0.33 1.98 0.66 3 1 C1.69593116 3.01920337 0.36176581 5.01924973 -1 7 C-1.33 7 -1.66 7 -2 7 C-2.125 4.625 -2.125 4.625 -2 2 C-1.34 1.34 -0.68 0.68 0 0 Z " fill="#466450" transform="translate(199,174)"/>
<path d="M0 0 C0.99 0.33 1.98 0.66 3 1 C1.68 2.32 0.36 3.64 -1 5 C-1.99 4.67 -2.98 4.34 -4 4 C-3.67 3.34 -3.34 2.68 -3 2 C-2.01 2 -1.02 2 0 2 C0 1.34 0 0.68 0 0 Z " fill="#4E644F" transform="translate(158,164)"/>
<path d="M0 0 C1.89213369 2.38573379 3.02391783 4.07175348 4 7 C3.01 8.485 3.01 8.485 2 10 C-0.09350689 6.5980513 -0.17942163 3.94727588 0 0 Z " fill="#455A44" transform="translate(36,144)"/>
<path d="M0 0 C0.66 0 1.32 0 2 0 C1.67 2.31 1.34 4.62 1 7 C0.01 7 -0.98 7 -2 7 C-1.34 4.69 -0.68 2.38 0 0 Z " fill="#606E5D" transform="translate(199,113)"/>
<path d="M0 0 C2.97 0.495 2.97 0.495 6 1 C5.34 2.32 4.68 3.64 4 5 C2.68 4.34 1.36 3.68 0 3 C0 2.01 0 1.02 0 0 Z " fill="#5B715A" transform="translate(179,104)"/>
<path d="M0 0 C0 1.65 0 3.3 0 5 C-0.66 5 -1.32 5 -2 5 C-2.33 5.66 -2.66 6.32 -3 7 C-3.33 5.02 -3.66 3.04 -4 1 C-1 0 -1 0 0 0 Z " fill="#698069" transform="translate(125,61)"/>
<path d="M0 0 C0.99 0.33 1.98 0.66 3 1 C1.68 3.64 0.36 6.28 -1 9 C-2.10107995 5.69676014 -1.86709271 4.29495231 -1 1 C-0.67 0.67 -0.34 0.34 0 0 Z " fill="#4F5E4D" transform="translate(35,55)"/>
<path d="M0 0 C2 2 2 2 2 6 C0.68 5.34 -0.64 4.68 -2 4 C-2 3.01 -2 2.02 -2 1 C-1.34 0.67 -0.68 0.34 0 0 Z " fill="#829681" transform="translate(196,49)"/>
<path d="M0 0 C1.65 0 3.3 0 5 0 C4.67 1.32 4.34 2.64 4 4 C2.35 4 0.7 4 -1 4 C-0.67 2.68 -0.34 1.36 0 0 Z " fill="#4C6B4C" transform="translate(169,203)"/>
<path d="M0 0 C2.475 0.99 2.475 0.99 5 2 C5 2.99 5 3.98 5 5 C3.02 4.34 1.04 3.68 -1 3 C-0.67 2.01 -0.34 1.02 0 0 Z " fill="#414F41" transform="translate(59,172)"/>
<path d="M0 0 C0.99 0 1.98 0 3 0 C3 1.98 3 3.96 3 6 C2.01 5.67 1.02 5.34 0 5 C0 3.35 0 1.7 0 0 Z " fill="#5C855F" transform="translate(25,173)"/>
<path d="M0 0 C0.66 0.33 1.32 0.66 2 1 C0.68 3.31 -0.64 5.62 -2 8 C-2.6875 6.25 -2.6875 6.25 -3 4 C-1.5625 1.75 -1.5625 1.75 0 0 Z " fill="#455948" transform="translate(205,166)"/>
<path d="M0 0 C0.33 0 0.66 0 1 0 C1 1.65 1 3.3 1 5 C-0.32 5.33 -1.64 5.66 -3 6 C-2.42655063 3.13275314 -2.1385485 2.1385485 0 0 Z " fill="#698E6D" transform="translate(176,122)"/>
<path d="M0 0 C0.66 0 1.32 0 2 0 C2 2.31 2 4.62 2 7 C0.68 6.67 -0.64 6.34 -2 6 C-1.34 4.02 -0.68 2.04 0 0 Z " fill="#4D5E56" transform="translate(47,85)"/>
<path d="M0 0 C2.0625 0.4375 2.0625 0.4375 4 1 C3.67 2.32 3.34 3.64 3 5 C2.01 4.67 1.02 4.34 0 4 C-0.33 3.01 -0.66 2.02 -1 1 C-0.67 0.67 -0.34 0.34 0 0 Z " fill="#616B62" transform="translate(121,40)"/>
<path d="M0 0 C0.99 0.33 1.98 0.66 3 1 C3 3 3 3 1.625 4.625 C0 6 0 6 -2 6 C-1.125 1.125 -1.125 1.125 0 0 Z " fill="#474B46" transform="translate(115,33)"/>
</svg>
